<svg xmlns="http://www.w3.org/2000/svg" xml:space="preserve" id="Layer_1" x="0" y="0" version="1.1" viewBox="0 0 400 223.4">
  <style>
    .st0{fill:#929497}.st1{fill:#C43426}.st2{fill:#F9A51A}.st3{fill:#009CC9}.st4{fill:#FFE080}
  </style>
  <path d="M205.5 162.7v-31.5c0-11.5 1.1-17-10.9-17-14.9 0-13.8 10.3-13.8 20.7v27.8H167v-59.8h12v4.8c3.4-3.1 8.8-5.7 17.3-5.7 24.1 0 23.1 15.2 23.1 28.2v32.6h-13.9zM66.4 102c-10 0-25.5 3.3-26.4 13.9-.5 2.6.6 4.8 3.4 6.4 3.7 2.1 6.9 1.2 9-2.4.2-.3.3-.6.5-.9 3.4-5.4 7.8-5.2 12.9-5.2 12.1 0 12.6 3.6 12.6 11.5H63c-12.7 0-25.5 2-25.5 19.3 0 14.6 9.1 19.1 23.3 19.1 8.6 0 14.8-2.6 18.6-5.9v4.9h12.4v-38.9c0-15.5-9.3-21.8-25.4-21.8M63 152.3c-9.4 0-11.6-2.8-11.6-8 0-6.4 2.7-7.8 11.1-7.8h16c.1 10.4-1.3 15.8-15.5 15.8M281.8 151.4c-12.5 0-14-4.9-14-18.6 0-13.7 1.5-18.6 14-18.6 4.9 0 11.9 0 12 6.6 0 4.1 2.3 6.5 6.5 6.5s6.5-2.4 6.5-6.6v-.9c-.6-15.3-14.7-17.8-25.4-17.8-24.9 0-27.4 13.7-27.4 30.6 0 16.9 2.6 31.1 27.4 31.1 11 0 25.5-2.7 25.5-18.8h-13.1c-.1 6.5-7.1 6.5-12 6.5M229.7 102.2h14v60.6h-14zM131.1 151.4c-12.5 0-14-4.9-14-18.6 0-13.7 1.5-18.6 14-18.6 4.9 0 11.9 0 12 6.6 0 4.1 2.3 6.5 6.5 6.5s6.6-2.4 6.6-6.6v-.9c-.6-15.3-14.7-17.8-25.4-17.8-24.9 0-27.4 13.7-27.4 30.6 0 16.9 2.6 31.1 27.4 31.1 11 0 25.5-2.7 25.5-18.8h-13.1c-.2 6.5-7.2 6.5-12.1 6.5M21 144.8V81.4H7.2v59.5c0 11.5 4.9 18.1 13.8 20.8 2.6.8 5.6 1.3 8.8 1.4V151c-6.7-.4-8.2-2.6-8.8-6.2" class="st0"/>
  <path d="M359.4 135.5c-21.6 0-33.4-12.4-33.4-33.4 0-21.6 12.4-32.9 33.4-32.9s33.4 11.3 33.4 32.9c0 21-11.9 33.4-33.4 33.4" class="st1"/>
  <path d="M366.4 114.9c-12.9 0-20.1-7.4-20.1-20.1 0-12.9 7.4-19.7 20.1-19.7 12.6 0 20.1 6.8 20.1 19.7 0 12.6-7.1 20.1-20.1 20.1" class="st2"/>
  <path d="M370.6 104.8c-7.8 0-12-4.5-12-12 0-7.8 4.5-11.8 12-11.8 7.6 0 12 4.1 12 11.8.1 7.5-4.2 12-12 12M350.5 183.5c-12.9 0-20.1-7.4-20.1-20.1 0-12.9 7.4-19.7 20.1-19.7 12.6 0 20.1 6.8 20.1 19.7-.1 12.6-7.2 20.1-20.1 20.1" class="st3"/>
  <path d="M347.2 178.6c-7.8 0-12-4.5-12-12 0-7.8 4.5-11.9 12-11.9 7.6 0 12 4.1 12 11.9 0 7.5-4.3 12-12 12" class="st4"/>
  <path d="M345.8 174.6c-4.7 0-7.2-2.7-7.2-7.2 0-4.7 2.7-7.1 7.2-7.1s7.2 2.4 7.2 7.1c0 4.6-2.5 7.2-7.2 7.2" class="st2"/>
  <path d="M319.1 71.5c-12.9 0-20.1-7.4-20.1-20.1 0-12.9 7.4-19.7 20.1-19.7 12.6 0 20.1 6.8 20.1 19.7 0 12.7-7.1 20.1-20.1 20.1" class="st3"/>
  <path d="M321.3 67.7c-7.8 0-12-4.5-12-12 0-7.8 4.5-11.8 12-11.8 7.6 0 12 4.1 12 11.8.1 7.5-4.2 12-12 12" class="st1"/>
  <path d="M323.1 64.5c-4.7 0-7.2-2.7-7.2-7.2 0-4.7 2.7-7.1 7.2-7.1s7.2 2.4 7.2 7.1c0 4.5-2.5 7.2-7.2 7.2" class="st2"/>
  <path d="M348 32c-7.8 0-12-4.5-12-12 0-7.8 4.5-11.8 12-11.8 7.6 0 12 4.1 12 11.8 0 7.6-4.2 12-12 12" class="st1"/>
  <path d="M346 29.1c-4.7 0-7.2-2.7-7.2-7.2 0-4.7 2.7-7.1 7.2-7.1s7.2 2.4 7.2 7.1c0 4.5-2.5 7.2-7.2 7.2" class="st4"/>
  <path d="M342.4 215.3c-7.8 0-12-4.5-12-12 0-7.8 4.5-11.8 12-11.8 7.6 0 12 4.1 12 11.8 0 7.5-4.3 12-12 12" class="st2"/>
  <path d="M340.4 212.3c-4.7 0-7.2-2.7-7.2-7.2 0-4.7 2.7-7.1 7.2-7.1s7.2 2.4 7.2 7.1c0 4.6-2.6 7.2-7.2 7.2" class="st1"/>
</svg>